<svg width="20" height="18" viewBox="0 0 20 18" fill="none" xmlns="http://www.w3.org/2000/svg">
<path d="M18.3337 13.1667V9.83333C18.3337 5.23096 14.6027 1.5 10.0003 1.5C5.39795 1.5 1.66699 5.23096 1.66699 9.83333V13.1667M6.25033 16.5C5.09973 16.5 4.16699 15.5673 4.16699 14.4167V11.9167C4.16699 10.7661 5.09973 9.83333 6.25033 9.83333C7.40092 9.83333 8.33366 10.7661 8.33366 11.9167V14.4167C8.33366 15.5673 7.40092 16.5 6.25033 16.5ZM13.7503 16.5C12.5997 16.5 11.667 15.5673 11.667 14.4167V11.9167C11.667 10.7661 12.5997 9.83333 13.7503 9.83333C14.9009 9.83333 15.8337 10.7661 15.8337 11.9167V14.4167C15.8337 15.5673 14.9009 16.5 13.7503 16.5Z" stroke="#FAD12E" stroke-width="2" stroke-linecap="round" stroke-linejoin="round"/>
</svg>
