<svg width="54" height="32" viewBox="0 0 54 32" fill="none" xmlns="http://www.w3.org/2000/svg">
<g clip-path="url(#clip0_7029_9452)">
<path fill-rule="evenodd" clip-rule="evenodd" d="M27.014 27.8523C29.8607 30.434 33.6836 32 37.8418 32C46.7721 32 54.0001 24.831 54.0001 16.0136C54.0001 7.16933 46.7721 0 37.8418 0C33.6836 0 29.8607 1.56563 27.014 4.14765C23.7488 7.08657 21.6835 11.3167 21.6835 16.0136C21.6839 20.7105 23.7488 24.9409 27.014 27.8523Z" fill="#E9B040"/>
<path fill-rule="evenodd" clip-rule="evenodd" d="M51.8518 24.9132C51.8518 24.6385 52.0752 24.4189 52.354 24.4189C52.6608 24.4189 52.8838 24.6388 52.8838 24.9132C52.8838 25.2158 52.6605 25.4353 52.354 25.4353C52.0752 25.4353 51.8518 25.2158 51.8518 24.9132ZM52.354 25.3257C52.5774 25.3257 52.7721 25.1331 52.7721 24.9136C52.7721 24.6941 52.577 24.5292 52.354 24.5292C52.1583 24.5292 51.9635 24.6941 51.9635 24.9136C51.9635 25.1331 52.1586 25.3257 52.354 25.3257ZM52.2982 25.1609H52.1865V24.6937H52.3816C52.4099 24.6937 52.4657 24.6937 52.4933 24.7215C52.5491 24.7487 52.5491 24.7765 52.5491 24.8314C52.5491 24.8864 52.5215 24.9414 52.4657 24.9414L52.5774 25.1612H52.4374L52.3816 24.9685H52.2982V25.1609V24.8861H52.4099C52.4374 24.8861 52.4374 24.8583 52.4374 24.8311C52.4374 24.8033 52.4374 24.8033 52.4099 24.7762H52.2982V25.1609Z" fill="#E9B040"/>
<path fill-rule="evenodd" clip-rule="evenodd" d="M32.2328 14.3109C32.1769 13.7341 32.0653 13.1849 31.9536 12.6078H22.0744C22.186 12.0311 22.3535 11.4819 22.5207 10.9323H31.4793C31.2848 10.354 31.0613 9.78567 30.8096 9.22925H23.2187C23.4979 8.64744 23.8053 8.07911 24.1397 7.52623H29.861C29.4929 6.9396 29.0826 6.37965 28.6332 5.85068H25.3678C25.8729 5.24354 26.4232 4.67429 27.0143 4.14765C24.14 1.59311 20.3444 0 16.1583 0C7.25586 0 0 7.16933 0 16.0136C0 24.831 7.25586 32 16.1583 32C20.3444 32 24.1397 30.434 27.0143 27.8523C27.5963 27.3349 28.1375 26.7746 28.6332 26.1764H25.3678C24.9211 25.6272 24.5305 25.0779 24.1397 24.4734H29.861C30.2208 23.9303 30.538 23.3609 30.8099 22.7704H23.2187C22.9674 22.2211 22.7165 21.6719 22.5207 21.0945H31.4793C31.6744 20.5453 31.8143 19.9689 31.9533 19.3915C32.0649 18.8422 32.1766 18.2658 32.2324 17.6885C32.289 17.1316 32.3171 16.5722 32.3165 16.0126C32.3165 15.4368 32.2886 14.8601 32.2328 14.3109Z" fill="#CC2131"/>
<path fill-rule="evenodd" clip-rule="evenodd" d="M51.8518 19.7216C51.8518 19.4197 52.0752 19.2002 52.354 19.2002C52.6608 19.2002 52.8838 19.42 52.8838 19.7216C52.8838 19.9964 52.6605 20.2437 52.354 20.2437C52.0752 20.2437 51.8518 19.9961 51.8518 19.7216ZM52.354 20.106C52.5774 20.106 52.7721 19.9411 52.7721 19.7216C52.7721 19.5021 52.577 19.3373 52.354 19.3373C52.1583 19.3373 51.9635 19.5021 51.9635 19.7216C51.9635 19.9411 52.1586 20.106 52.354 20.106ZM52.2982 19.9411H52.1865V19.5018H52.4933C52.5491 19.5296 52.5491 19.5846 52.5491 19.6395C52.5491 19.6667 52.5215 19.7216 52.4657 19.7494L52.5774 19.9415H52.4374L52.3816 19.7766H52.2982V19.9411V19.6942H52.354C52.3816 19.6942 52.4099 19.6942 52.4099 19.6664C52.4374 19.6664 52.4374 19.6392 52.4374 19.6114C52.4374 19.6114 52.4374 19.5843 52.4099 19.5843C52.4099 19.5564 52.3816 19.5843 52.354 19.5843H52.2982V19.9411Z" fill="white"/>
<path fill-rule="evenodd" clip-rule="evenodd" d="M21.5161 20.6282C20.986 20.7653 20.5951 20.8481 20.2046 20.8481C19.3674 20.8481 18.8648 20.326 18.8648 19.392C18.8648 19.2 18.8927 19.0076 18.9207 18.7878L19.0323 18.1564L19.1161 17.6344L19.8696 13.1298H21.544L21.3486 14.1187H22.4092L22.1579 15.7668H21.0973L20.6509 18.4584C20.623 18.5961 20.623 18.6782 20.623 18.7332C20.623 19.0904 20.7905 19.2275 21.209 19.2275C21.4044 19.2275 21.5716 19.2003 21.7391 19.1725L21.5161 20.6282ZM26.9303 20.5733C26.3164 20.7381 25.7584 20.8203 25.1442 20.8203C23.2464 20.8203 22.1579 19.8313 22.1579 17.8817C22.1579 15.6016 23.4418 13.9535 25.2276 13.9535C26.6508 13.9535 27.5718 14.8875 27.5718 16.3429C27.5718 16.8378 27.516 17.3046 27.3767 17.9638H23.8882C23.8603 18.0737 23.8603 18.1286 23.8603 18.1836C23.8603 18.9527 24.3904 19.3371 25.3951 19.3371C26.0369 19.3371 26.595 19.2 27.2092 18.9255L26.9303 20.5733ZM25.8977 16.6454V16.3157C25.8977 15.7665 25.5906 15.4642 25.0604 15.4642C24.5021 15.4642 24.1115 15.876 23.944 16.6451L25.8977 16.6454ZM8.12045 20.7103H6.39016L7.3949 14.4756L5.13449 20.7103H3.93465L3.79505 14.5031L2.73448 20.7103H1.0321L2.39946 12.6077H4.93906L4.99489 17.6072L6.69727 12.6077H9.48814L8.12045 20.7103ZM12.3348 17.7717C12.1673 17.7439 12.1115 17.7439 11.9998 17.7439C10.9951 17.7439 10.4929 18.1283 10.4929 18.7329C10.4929 19.145 10.7441 19.4198 11.1347 19.4198C11.9719 19.4198 12.3066 18.7329 12.3348 17.7717ZM13.7301 20.7103H12.2232L12.2511 20.024C11.8602 20.5455 11.3301 20.8203 10.4091 20.8203C9.57189 20.8203 8.84634 20.079 8.84634 19.0076C8.84634 18.7057 8.90217 18.4312 8.98593 18.1564C9.26479 17.1397 10.2974 16.5084 11.8881 16.4806C12.0836 16.4806 12.3903 16.4806 12.6695 16.5084C12.725 16.2885 12.725 16.2058 12.725 16.0687C12.725 15.6291 12.3624 15.4917 11.5531 15.4917C11.0509 15.4917 10.4925 15.5741 10.102 15.7115L9.85075 15.7665L9.73907 15.7936L9.99034 14.3104C10.7996 14.0631 11.3856 13.9535 12.0277 13.9535C13.5347 13.9535 14.344 14.6402 14.344 15.9035C14.344 16.2333 14.3719 16.4806 14.2602 17.1947L13.8697 19.5569L13.8139 19.9691L13.7859 20.2988L13.758 20.5186L13.7301 20.7103ZM35.3584 14.1733C35.8606 14.1733 36.3073 14.3107 36.9212 14.6127L37.228 12.8547C37.0605 12.7723 37.0046 12.7723 36.7816 12.6898L36.0843 12.4975C35.861 12.4425 35.5821 12.415 35.2747 12.415C34.4092 12.415 33.907 12.4425 33.3772 12.7448C33.098 12.9371 32.7351 13.1844 32.3442 13.6238L32.1209 13.5688L30.3347 14.8047L30.4188 14.1181H28.5765L27.4887 20.71H29.2472L29.8887 17.1672C29.8887 17.1672 30.1403 16.6723 30.2516 16.5081C30.5867 16.0959 30.8655 16.0959 31.2281 16.0959H31.3681C31.3095 16.5145 31.2814 16.9367 31.284 17.3592C31.284 19.5016 32.5117 20.8477 34.4095 20.8477C34.8841 20.8477 35.3032 20.7928 35.9447 20.6279L36.2522 18.7603C35.6941 19.0623 35.1916 19.1997 34.7728 19.1997C33.7405 19.1997 33.1259 18.4306 33.1259 17.2222C33.1253 15.4367 34.0466 14.1733 35.3584 14.1733ZM50.1766 12.6077L49.7864 14.9149C49.3676 14.2833 48.8651 13.981 48.1954 13.981C47.2741 13.981 46.4092 14.5028 45.8788 15.4917V15.4645L44.7627 14.805L44.8744 14.1184H43.0045L41.9439 20.7103H43.6742L44.2605 17.1675C44.2605 17.1675 44.7069 16.6726 44.8185 16.5084C45.0977 16.1786 45.3766 16.1234 45.5999 16.0962C45.4048 16.6455 45.2932 17.3046 45.2932 18.0465C45.2932 19.6946 46.158 20.7931 47.4416 20.7931C48.0837 20.7931 48.5859 20.5733 49.0602 20.0512L48.9768 20.7103H50.6236L51.9631 12.6077H50.1766ZM48.0282 19.145C47.4419 19.145 47.1351 18.7057 47.1351 17.8539C47.1351 16.5627 47.6932 15.6291 48.5021 15.6291C49.116 15.6291 49.4235 16.0962 49.4235 16.9202C49.4235 18.2386 48.8654 19.145 48.0282 19.145ZM39.9633 17.7717C39.7958 17.7439 39.74 17.7439 39.6283 17.7439C38.6229 17.7439 38.1207 18.1283 38.1207 18.7329C38.1207 19.145 38.3723 19.4198 38.7628 19.4198C39.6001 19.4198 39.9351 18.7329 39.9633 17.7717ZM41.3586 20.7103H39.8234L39.8793 20.024C39.4887 20.5455 38.958 20.8203 38.0376 20.8203C37.1721 20.8203 36.419 20.1061 36.419 19.0076C36.419 17.4423 37.6185 16.4809 39.5163 16.4809C39.7121 16.4809 40.0185 16.4809 40.2701 16.5087C40.326 16.2889 40.3542 16.2061 40.3542 16.069C40.3542 15.6294 39.9913 15.492 39.154 15.492C38.6794 15.492 38.0935 15.5744 37.7029 15.7118L37.4796 15.7668L37.3679 15.7939L37.6188 14.3107C38.4285 14.0634 39.0148 13.9538 39.6562 13.9538C41.1632 13.9538 41.9446 14.6405 41.9446 15.9039C41.9446 16.2336 42.0004 16.4809 41.8611 17.195L41.4982 19.5572L41.4424 19.9694L41.3865 20.2991L41.3589 20.519V20.7103H41.3586ZM17.3858 15.5191C17.7208 15.5191 18.1951 15.5466 18.6976 15.6291L18.9489 14.0909C18.4464 14.036 17.7767 13.9535 17.3858 13.9535C15.4325 13.9535 14.7907 14.9974 14.7907 16.2058C14.7907 17.0027 15.1533 17.5791 16.1022 18.0184C16.7998 18.3482 16.9115 18.4028 16.9115 18.7054C16.9115 19.1169 16.5489 19.3645 15.8789 19.3645C15.3487 19.3645 14.8462 19.2818 14.2882 19.0898L14.0927 20.6001L14.1203 20.6279L14.4553 20.6829C14.567 20.71 14.7066 20.7378 14.902 20.765C15.3205 20.7928 15.6834 20.8199 15.9068 20.8199C17.8604 20.8199 18.6697 20.0787 18.6697 18.6226C18.6697 17.7165 18.223 17.1672 17.3579 16.7828C16.6044 16.4528 16.5206 16.3985 16.5206 16.0959C16.5206 15.7939 16.8557 15.5191 17.3858 15.5191Z" fill="#1B3771"/>
<path fill-rule="evenodd" clip-rule="evenodd" d="M37.7027 12.3328L37.3953 14.0907C36.7814 13.7885 36.3347 13.6514 35.8325 13.6514C34.5207 13.6514 33.6 14.9148 33.6 16.7002C33.6 17.9364 34.2139 18.6777 35.2469 18.6777C35.665 18.6777 36.1675 18.5407 36.7256 18.2662L36.4188 20.106C35.7767 20.2708 35.3582 20.3536 34.8836 20.3536C32.9861 20.3536 31.8139 19.0075 31.8139 16.838C31.8139 13.9537 33.4325 11.9209 35.7488 11.9209C36.0555 11.9209 36.3344 11.9484 36.5577 12.0033L37.2557 12.1682C37.4794 12.2506 37.5352 12.2781 37.7027 12.3328ZM32.0652 13.5415H31.8976C31.312 13.5415 30.977 13.8163 30.4465 14.6125L30.614 13.5961H29.023L27.9352 20.1884H29.6937C30.3352 16.1507 30.5027 15.464 31.3399 15.464H31.4516C31.6191 14.6675 31.8421 14.0904 32.1213 13.5686L32.0652 13.5415ZM21.9629 20.106C21.4886 20.2708 21.0978 20.3258 20.7072 20.3258C19.8142 20.3258 19.3116 19.8315 19.3116 18.8704C19.3116 18.7055 19.3396 18.486 19.3675 18.2933L19.4792 17.6342L19.5629 17.1127L20.3164 12.6075H22.0467L21.8512 13.5964H22.7443L22.521 15.217H21.6279L21.1536 17.9639C21.1257 18.0738 21.1257 18.1566 21.1257 18.2387C21.1257 18.5685 21.2932 18.7058 21.7117 18.7058C21.9071 18.7058 22.0743 18.7058 22.1859 18.6509L21.9629 20.106ZM15.2372 15.6838C15.2372 16.5082 15.6277 17.0846 16.5487 17.5243C17.2742 17.854 17.3859 17.9636 17.3859 18.2384C17.3859 18.6506 17.0788 18.8426 16.3812 18.8426C15.8511 18.8426 15.3764 18.7605 14.8184 18.5956L14.5671 20.106L14.6509 20.1338L14.958 20.1887C15.0693 20.2159 15.2093 20.2437 15.4323 20.2437C15.8228 20.2986 16.1578 20.2986 16.3812 20.2986C18.2228 20.2986 19.0883 19.6117 19.0883 18.1013C19.0883 17.1945 18.7257 16.6724 17.8605 16.2609C17.1071 15.9312 17.0233 15.849 17.0233 15.5468C17.0233 15.1899 17.3304 15.025 17.8885 15.025C18.2235 15.025 18.6978 15.0525 19.1445 15.1074L19.3954 13.5968C18.949 13.5143 18.2514 13.4594 17.8605 13.4594C15.9069 13.4591 15.2093 14.4754 15.2372 15.6838ZM51.0705 20.1887H49.4236L49.5077 19.5567C49.0331 20.051 48.5305 20.2708 47.8884 20.2708C46.6048 20.2708 45.7676 19.2001 45.7676 17.5521C45.7676 15.3544 47.0794 13.4865 48.6139 13.4865C49.3119 13.4865 49.8141 13.7888 50.2891 14.393L50.6796 12.0858H52.4099L51.0705 20.1887ZM48.5026 18.6506C49.3122 18.6506 49.8703 17.7166 49.8703 16.4254C49.8703 15.5739 49.5628 15.1343 48.949 15.1343C48.1676 15.1343 47.582 16.0407 47.582 17.3319C47.582 18.2112 47.8887 18.6506 48.5026 18.6506ZM27.321 20.051C26.7068 20.2437 26.1487 20.3258 25.5069 20.3258C23.5533 20.3258 22.5485 19.3097 22.5485 17.3594C22.5485 15.1071 23.8325 13.4316 25.5907 13.4316C27.0418 13.4316 27.9624 14.3655 27.9624 15.8212C27.9624 16.3159 27.9066 16.783 27.7391 17.4693H24.2792C24.2513 17.5521 24.2513 17.607 24.2513 17.662C24.2513 18.4311 24.7817 18.8154 25.7861 18.8154C26.4279 18.8154 26.986 18.7055 27.6002 18.4033L27.321 20.051ZM26.3442 16.1232V15.7938C26.3442 15.2445 26.0371 14.9423 25.5069 14.9423C24.9489 14.9423 24.558 15.3544 24.3905 16.1232H26.3442ZM8.56728 20.1887H6.83699L7.84172 13.9533L5.58131 20.1887H4.38114L4.24155 14.0083L3.1813 20.1887H1.56268L2.93003 12.0858H5.44172L5.52547 17.1124L7.1996 12.0858H9.93463L8.56728 20.1887ZM12.893 17.2495C12.7255 17.2495 12.6417 17.2223 12.5021 17.2223C11.5253 17.2223 11.0231 17.5792 11.0231 18.2384C11.0231 18.6506 11.2465 18.8976 11.637 18.8976C12.3626 18.8976 12.8651 18.2384 12.893 17.2495ZM14.1766 20.1887H12.7252L12.7531 19.5018C12.3064 20.051 11.7204 20.2986 10.9111 20.2986C9.96222 20.2986 9.32042 19.5845 9.32042 18.5132C9.32042 16.8929 10.4365 15.959 12.3901 15.959C12.5856 15.959 12.8368 15.9864 13.1157 16.0136C13.1715 15.7941 13.1715 15.7117 13.1715 15.6017C13.1715 15.1624 12.8644 14.9975 12.0551 14.9975C11.5529 14.9975 10.9945 15.0525 10.604 15.1624L10.3528 15.2448L10.1852 15.2723L10.4365 13.7891C11.3017 13.5418 11.8876 13.4594 12.5297 13.4594C14.0367 13.4594 14.846 14.1185 14.846 15.3819C14.846 15.7117 14.8181 15.959 14.7064 16.7006L14.3155 19.0356L14.2597 19.4471L14.2318 19.7769L14.2039 20.0245L14.1766 20.1887ZM40.5215 17.2495C40.3258 17.2495 40.2423 17.2223 40.131 17.2223C39.1262 17.2223 38.6234 17.5792 38.6234 18.2384C38.6234 18.6506 38.875 18.8976 39.2655 18.8976C39.9635 18.8976 40.4933 18.2384 40.5215 17.2495ZM41.8051 20.1887H40.354L40.3816 19.5018C39.9352 20.051 39.3493 20.2986 38.54 20.2986C37.5911 20.2986 36.9489 19.5845 36.9489 18.5132C36.9489 16.8929 38.065 15.959 40.0187 15.959C40.2144 15.959 40.4657 15.9864 40.7166 16.0136C40.7725 15.7941 40.8007 15.7117 40.8007 15.6017C40.8007 15.1624 40.4933 14.9975 39.6846 14.9975C39.1818 14.9975 38.5961 15.0525 38.2053 15.1624L37.9819 15.2448L37.8144 15.2723L38.0653 13.7891C38.9308 13.5418 39.5164 13.4594 40.1586 13.4594C41.6655 13.4594 42.4469 14.1185 42.4469 15.3819C42.4469 15.7117 42.4469 15.959 42.3076 16.7006L41.9447 19.0356L41.8889 19.4471L41.833 19.7769L41.8054 20.0245L41.8051 20.1887ZM46.4935 13.5415H46.3259C45.7403 13.5415 45.4053 13.8163 44.8748 14.6125L45.0424 13.5961H43.4513L42.3907 20.1884H44.121C44.7632 16.1507 44.9307 15.464 45.7679 15.464H45.8796C46.0471 14.6675 46.2701 14.0904 46.5493 13.5686L46.4935 13.5415Z" fill="white"/>
</g>
<defs>
<clipPath id="clip0_7029_9452">
<rect width="54" height="32" fill="white"/>
</clipPath>
</defs>
</svg>
