<svg width="73" height="24" viewBox="0 0 73 24" fill="none" xmlns="http://www.w3.org/2000/svg">
<g clip-path="url(#clip0_7029_9447)">
<path d="M31.6586 23.253H25.7172L29.4305 0.458094H35.3725L31.6586 23.253ZM20.719 0.458094L15.0547 16.1366L14.3845 12.7604L14.3851 12.7616L12.3859 2.51051C12.3859 2.51051 12.1441 0.458094 9.56749 0.458094H0.203385L0.0935059 0.844065C0.0935059 0.844065 2.95707 1.43918 6.30837 3.44953L11.4702 23.2536H17.6607L27.1133 0.458094H20.719ZM67.451 23.253H72.9065L68.1499 0.457484H63.3739C61.1684 0.457484 60.6312 2.15625 60.6312 2.15625L51.7701 23.253H57.9636L59.2022 19.867H66.7551L67.451 23.253ZM60.9132 15.1897L64.035 6.65925L65.7912 15.1897H60.9132ZM52.2346 5.93974L53.0825 1.04467C53.0825 1.04467 50.4662 0.0507812 47.7388 0.0507812C44.7903 0.0507812 37.7886 1.33796 37.7886 7.59705C37.7886 13.486 46.0063 13.5592 46.0063 16.6524C46.0063 19.7457 38.6353 19.1914 36.2027 17.2409L35.3194 22.3591C35.3194 22.3591 37.9724 23.6463 42.0257 23.6463C46.0802 23.6463 52.1968 21.5493 52.1968 15.8421C52.1968 9.91532 43.9052 9.36349 43.9052 6.78669C43.9058 4.20928 49.6922 4.54037 52.2346 5.93974Z" fill="#2566AF"/>
<path d="M14.3851 12.7606L12.3859 2.50945C12.3859 2.50945 12.1442 0.457031 9.5675 0.457031H0.203385L0.0935059 0.843003C0.0935059 0.843003 4.59426 1.7747 8.91128 5.26552C13.0391 8.60207 14.3851 12.7606 14.3851 12.7606Z" fill="#E6A540"/>
</g>
<defs>
<clipPath id="clip0_7029_9447">
<rect width="73" height="24" fill="white"/>
</clipPath>
</defs>
</svg>
