<svg width="279" height="39" viewBox="0 0 279 39" fill="none" xmlns="http://www.w3.org/2000/svg">
<rect x="1.5" y="2" width="35" height="35" rx="17.5" fill="#FAD12E"/>
<rect x="1.5" y="2" width="35" height="35" rx="17.5" stroke="white" stroke-width="3"/>
<path fill-rule="evenodd" clip-rule="evenodd" d="M15.8009 10.3334H22.1985C22.6378 10.3334 23.0167 10.3333 23.3289 10.3589C23.6583 10.3858 23.986 10.4452 24.3013 10.6059C24.7717 10.8455 25.1542 11.228 25.3939 11.6984C25.5545 12.0137 25.614 12.3414 25.6409 12.6709C25.6664 12.983 25.6664 13.362 25.6663 13.8013V25.1988C25.6664 25.6381 25.6664 26.0171 25.6409 26.3292C25.614 26.6587 25.5545 26.9864 25.3939 27.3017C25.1542 27.7721 24.7717 28.1545 24.3013 28.3942C23.986 28.5549 23.6583 28.6143 23.3289 28.6412C23.0167 28.6667 22.6378 28.6667 22.1985 28.6667H15.8009C15.3616 28.6667 14.9826 28.6667 14.6705 28.6412C14.341 28.6143 14.0133 28.5549 13.698 28.3942C13.2276 28.1545 12.8452 27.7721 12.6055 27.3017C12.4448 26.9864 12.3854 26.6587 12.3585 26.3292C12.333 26.0171 12.333 25.6381 12.333 25.1988V13.8013C12.333 13.362 12.333 12.983 12.3585 12.6709C12.3854 12.3414 12.4448 12.0137 12.6055 11.6984C12.8452 11.228 13.2276 10.8455 13.698 10.6059C14.0133 10.4452 14.341 10.3858 14.6705 10.3589C14.9826 10.3333 15.3616 10.3334 15.8009 10.3334ZM14.8062 12.02C14.5798 12.0385 14.4959 12.0699 14.4547 12.0909C14.2979 12.1708 14.1704 12.2982 14.0905 12.4551C14.0695 12.4963 14.0381 12.5802 14.0196 12.8066C14.0003 13.0427 13.9997 13.3529 13.9997 13.8334V15.3334H23.9997L23.9997 13.8334C23.9997 13.3529 23.999 13.0427 23.9797 12.8066C23.9612 12.5802 23.9298 12.4963 23.9088 12.4551C23.829 12.2982 23.7015 12.1708 23.5447 12.0909C23.5035 12.0699 23.4195 12.0385 23.1931 12.02C22.957 12.0007 22.6468 12 22.1663 12H15.833C15.3525 12 15.0423 12.0007 14.8062 12.02ZM23.9997 17H13.9997V25.1667C13.9997 25.6472 14.0003 25.9574 14.0196 26.1935C14.0381 26.4199 14.0695 26.5038 14.0905 26.545C14.1704 26.7018 14.2979 26.8293 14.4547 26.9092C14.4959 26.9302 14.5798 26.9616 14.8062 26.9801C15.0423 26.9994 15.3525 27 15.833 27H22.1663C22.6468 27 22.957 26.9994 23.1931 26.9801C23.4195 26.9616 23.5035 26.9302 23.5447 26.9092C23.7015 26.8293 23.829 26.7018 23.9088 26.545C23.9298 26.5038 23.9612 26.4199 23.9797 26.1935C23.999 25.9574 23.9997 25.6472 23.9997 25.1667L23.9997 17Z" fill="white"/>
<path fill-rule="evenodd" clip-rule="evenodd" d="M19.0003 20.3333C18.0799 20.3333 17.3337 21.0795 17.3337 22C17.3337 22.9204 18.0799 23.6666 19.0003 23.6666C19.9208 23.6666 20.667 22.9204 20.667 22C20.667 21.0795 19.9208 20.3333 19.0003 20.3333ZM15.667 22C15.667 20.159 17.1594 18.6666 19.0003 18.6666C20.8413 18.6666 22.3337 20.159 22.3337 22C22.3337 23.8409 20.8413 25.3333 19.0003 25.3333C17.1594 25.3333 15.667 23.8409 15.667 22Z" fill="white"/>
<path fill-rule="evenodd" clip-rule="evenodd" d="M22.3333 14.5C22.7936 14.5 23.1667 14.1269 23.1667 13.6667C23.1667 13.2065 22.7936 12.8334 22.3333 12.8334C21.8731 12.8334 21.5 13.2065 21.5 13.6667C21.5 14.1269 21.8731 14.5 22.3333 14.5Z" fill="white"/>
<path fill-rule="evenodd" clip-rule="evenodd" d="M19.8333 14.5C20.2936 14.5 20.6667 14.1269 20.6667 13.6667C20.6667 13.2065 20.2936 12.8334 19.8333 12.8334C19.3731 12.8334 19 13.2065 19 13.6667C19 14.1269 19.3731 14.5 19.8333 14.5Z" fill="white"/>
<path fill-rule="evenodd" clip-rule="evenodd" d="M15.6663 12.8334C15.2061 12.8334 14.833 13.2065 14.833 13.6667C14.833 14.1269 15.2061 14.5 15.6663 14.5H17.333C17.7932 14.5 18.1663 14.1269 18.1663 13.6667C18.1663 13.2065 17.7932 12.8334 17.333 12.8334H15.6663Z" fill="white"/>
<rect x="29.5" y="2" width="35" height="35" rx="17.5" fill="#2AB8EB"/>
<rect x="29.5" y="2" width="35" height="35" rx="17.5" stroke="white" stroke-width="3"/>
<path d="M47.0003 24.0833H47.0087M43.8337 27.8333H50.167C51.1004 27.8333 51.5671 27.8333 51.9236 27.6516C52.2372 27.4918 52.4922 27.2369 52.652 26.9233C52.8337 26.5668 52.8337 26.1 52.8337 25.1666V13.8333C52.8337 12.8999 52.8337 12.4332 52.652 12.0766C52.4922 11.763 52.2372 11.5081 51.9236 11.3483C51.5671 11.1666 51.1004 11.1666 50.167 11.1666H43.8337C42.9002 11.1666 42.4335 11.1666 42.077 11.3483C41.7634 11.5081 41.5084 11.763 41.3486 12.0766C41.167 12.4332 41.167 12.8999 41.167 13.8333V25.1666C41.167 26.1 41.167 26.5668 41.3486 26.9233C41.5084 27.2369 41.7634 27.4918 42.077 27.6516C42.4335 27.8333 42.9002 27.8333 43.8337 27.8333ZM47.417 24.0833C47.417 24.3134 47.2304 24.5 47.0003 24.5C46.7702 24.5 46.5837 24.3134 46.5837 24.0833C46.5837 23.8532 46.7702 23.6666 47.0003 23.6666C47.2304 23.6666 47.417 23.8532 47.417 24.0833Z" stroke="white" stroke-width="1.75" stroke-linecap="round" stroke-linejoin="round"/>
<rect x="57.5" y="2" width="35" height="35" rx="17.5" fill="#DA3289"/>
<rect x="57.5" y="2" width="35" height="35" rx="17.5" stroke="white" stroke-width="3"/>
<path d="M79.167 27L75.0003 23.6667L70.8337 27M70.667 23.6667H79.3337C80.7338 23.6667 81.4339 23.6667 81.9686 23.3942C82.439 23.1545 82.8215 22.772 83.0612 22.3016C83.3337 21.7669 83.3337 21.0668 83.3337 19.6667V16C83.3337 14.5999 83.3337 13.8998 83.0612 13.365C82.8215 12.8946 82.439 12.5122 81.9686 12.2725C81.4339 12 80.7338 12 79.3337 12H70.667C69.2669 12 68.5668 12 68.032 12.2725C67.5616 12.5122 67.1792 12.8946 66.9395 13.365C66.667 13.8998 66.667 14.5999 66.667 16V19.6667C66.667 21.0668 66.667 21.7669 66.9395 22.3016C67.1792 22.772 67.5616 23.1545 68.032 23.3942C68.5668 23.6667 69.2669 23.6667 70.667 23.6667Z" stroke="white" stroke-width="1.75" stroke-linecap="round" stroke-linejoin="round"/>
<path d="M255.582 5.61377H262.987L267.242 24.5915H267.308L271.563 5.61377H279V29.9995H274.333V9.6117H274.267L269.666 29.9995H264.735L260.315 9.6117H260.249V29.9995H255.582V5.61377Z" fill="#DA3289"/>
<path d="M228.42 17.8065C228.42 15.9817 228.662 14.2897 229.146 12.7303C229.629 11.171 230.355 9.82172 231.322 8.68262C232.29 7.53245 233.505 6.63112 234.967 5.97862C236.429 5.32613 238.134 4.99988 240.08 4.99988C241.872 4.99988 243.488 5.32613 244.928 5.97862C246.368 6.63112 247.589 7.53245 248.589 8.68262C249.601 9.82172 250.376 11.171 250.915 12.7303C251.453 14.2897 251.723 15.9817 251.723 17.8065C251.723 19.6202 251.453 21.3123 250.915 22.8827C250.376 24.4421 249.601 25.7968 248.589 26.947C247.589 28.0861 246.368 28.9819 244.928 29.6344C243.488 30.2869 241.872 30.6132 240.08 30.6132C238.134 30.6132 236.429 30.2869 234.967 29.6344C233.505 28.9819 232.29 28.0861 231.322 26.947C230.355 25.7968 229.629 24.4421 229.146 22.8827C228.662 21.3123 228.42 19.6202 228.42 17.8065ZM240.08 26.2005C241.113 26.2005 242.037 25.9904 242.85 25.5701C243.664 25.1499 244.351 24.5693 244.912 23.8283C245.483 23.0763 245.918 22.1915 246.215 21.1741C246.511 20.1456 246.66 19.023 246.66 17.8065C246.66 16.59 246.511 15.473 246.215 14.4556C245.918 13.427 245.483 12.5423 244.912 11.8013C244.351 11.0493 243.664 10.4632 242.85 10.0429C242.037 9.62265 241.113 9.41253 240.08 9.41253C239.046 9.41253 238.123 9.62265 237.309 10.0429C236.495 10.4632 235.803 11.0493 235.231 11.8013C234.67 12.5423 234.236 13.427 233.928 14.4556C233.631 15.473 233.483 16.59 233.483 17.8065C233.483 19.023 233.631 20.1456 233.928 21.1741C234.236 22.1915 234.67 23.0763 235.231 23.8283C235.803 24.5693 236.495 25.1499 237.309 25.5701C238.123 25.9904 239.046 26.2005 240.08 26.2005Z" fill="#2AB8EB"/>
<path d="M205.464 5.61377H210.527V15.5339L219.795 5.61377H226.342L216.447 15.6003L226.92 29.9995H220.504L213.001 19.2001L210.527 21.7382V29.9995H205.464V5.61377Z" fill="#FAD12E"/>
<path d="M103 5.61377H108.079V25.7859H117.595V5.61377H122.658V25.7859H125.181V35.225H120.795V29.9995H103V5.61377Z" fill="#101828"/>
<path d="M131.118 22.4183C131.118 22.5842 131.135 22.8054 131.168 23.0819C131.201 23.3584 131.267 23.657 131.366 23.9777C131.465 24.2984 131.608 24.6247 131.795 24.9564C131.982 25.2772 132.229 25.5702 132.537 25.8356C132.856 26.1011 133.24 26.3167 133.691 26.4826C134.153 26.6485 134.703 26.7314 135.34 26.7314C135.67 26.7314 135.995 26.6872 136.313 26.5987C136.643 26.4992 136.946 26.361 137.22 26.184C137.495 25.996 137.732 25.7748 137.93 25.5205C138.138 25.255 138.287 24.9564 138.375 24.6247H143.207C143.207 24.9564 143.135 25.338 142.993 25.7693C142.85 26.1895 142.63 26.6209 142.333 27.0632C142.047 27.4945 141.684 27.9203 141.244 28.3406C140.805 28.7608 140.282 29.1368 139.678 29.4686C139.073 29.7893 138.386 30.0492 137.616 30.2483C136.858 30.4474 136.011 30.5469 135.076 30.5469C133.878 30.5469 132.751 30.3644 131.696 29.9995C130.651 29.6456 129.733 29.0815 128.942 28.3074C128.161 27.5222 127.545 26.5103 127.094 25.2716C126.644 24.033 126.418 22.5289 126.418 20.7594C126.418 19.5319 126.578 18.354 126.897 17.226C127.226 16.0869 127.732 15.086 128.414 14.2234C129.106 13.3608 129.986 12.6751 131.052 12.1664C132.13 11.6466 133.422 11.3867 134.928 11.3867C136.522 11.3867 137.864 11.6521 138.952 12.183C140.04 12.7028 140.915 13.4437 141.574 14.4059C142.245 15.368 142.723 16.5293 143.009 17.8896C143.295 19.2498 143.438 20.7594 143.438 22.4183H131.118ZM138.589 19.2996C138.589 18.5033 138.468 17.8398 138.226 17.3089C137.996 16.7781 137.699 16.3579 137.336 16.0482C136.984 15.7275 136.594 15.5063 136.165 15.3846C135.736 15.2519 135.324 15.1856 134.928 15.1856C134.543 15.1856 134.136 15.2519 133.708 15.3846C133.279 15.5063 132.883 15.7275 132.52 16.0482C132.168 16.3579 131.872 16.7781 131.63 17.3089C131.399 17.8398 131.283 18.5033 131.283 19.2996H138.589Z" fill="#101828"/>
<path d="M146.571 11.9176H151.238V18.4536H158.099V11.9176H162.75V29.9995H158.099V22.2524H151.238V29.9995H146.571V11.9176Z" fill="#101828"/>
<path d="M171.111 15.733H165.669V11.9176H181.204V15.733H175.762V29.9995H171.111V15.733Z" fill="#101828"/>
<path d="M183.975 11.9176H188.427V14.5054H188.493C188.812 13.9635 189.147 13.499 189.499 13.112C189.851 12.7138 190.241 12.3876 190.67 12.1332C191.099 11.8788 191.572 11.6908 192.088 11.5692C192.616 11.4475 193.21 11.3867 193.87 11.3867C194.419 11.3867 194.986 11.4531 195.568 11.5858C196.151 11.7185 196.717 11.9341 197.267 12.2327C197.828 12.5203 198.355 12.9018 198.85 13.3774C199.345 13.8419 199.779 14.4169 200.153 15.1026C200.527 15.7883 200.824 16.5901 201.043 17.508C201.263 18.4149 201.373 19.4544 201.373 20.6267C201.373 22.0866 201.214 23.4247 200.895 24.6412C200.587 25.8578 200.114 26.9029 199.477 27.7765C198.85 28.6502 198.053 29.3304 197.085 29.817C196.129 30.3036 195.002 30.5469 193.705 30.5469C193.254 30.5469 192.798 30.5027 192.336 30.4142C191.874 30.3257 191.423 30.1764 190.984 29.9663C190.544 29.7562 190.126 29.4741 189.73 29.1202C189.345 28.7553 189.004 28.3019 188.708 27.76H188.642V37H183.975V11.9176ZM192.484 15.6003C191.737 15.6003 191.104 15.7606 190.588 16.0814C190.082 16.4021 189.67 16.8168 189.351 17.3255C189.043 17.8343 188.818 18.4093 188.675 19.0508C188.532 19.6922 188.46 20.3281 188.46 20.9585C188.46 21.3013 188.477 21.6774 188.51 22.0866C188.554 22.4847 188.631 22.8939 188.741 23.3141C188.851 23.7233 188.999 24.1215 189.186 24.5085C189.384 24.8956 189.631 25.2384 189.928 25.537C190.225 25.8356 190.582 26.0789 191 26.267C191.418 26.4439 191.913 26.5324 192.484 26.5324C193.056 26.5324 193.551 26.4439 193.969 26.267C194.386 26.0789 194.744 25.8356 195.04 25.537C195.337 25.2384 195.579 24.8956 195.766 24.5085C195.964 24.1215 196.118 23.7233 196.228 23.3141C196.338 22.8939 196.409 22.4847 196.442 22.0866C196.486 21.6774 196.508 21.3013 196.508 20.9585C196.508 20.3281 196.437 19.6922 196.294 19.0508C196.151 18.4093 195.92 17.8343 195.601 17.3255C195.293 16.8168 194.881 16.4021 194.364 16.0814C193.848 15.7606 193.221 15.6003 192.484 15.6003Z" fill="#101828"/>
</svg>
