<svg width="20" height="16" viewBox="0 0 20 16" fill="none" xmlns="http://www.w3.org/2000/svg">
<path d="M11.667 3.83334H13.6147C13.8185 3.83334 13.9204 3.83334 14.0164 3.85637C14.1014 3.87678 14.1827 3.91045 14.2572 3.95614C14.3413 4.00768 14.4134 4.07974 14.5575 4.22387L17.9431 7.60949C18.0873 7.75361 18.1593 7.82568 18.2109 7.90977C18.2566 7.98433 18.2902 8.06562 18.3106 8.15065C18.3337 8.24656 18.3337 8.34847 18.3337 8.55229V10.9167C18.3337 11.305 18.3337 11.4991 18.2702 11.6522C18.1856 11.8564 18.0234 12.0187 17.8192 12.1032C17.6661 12.1667 17.4719 12.1667 17.0837 12.1667M12.917 12.1667H11.667M11.667 12.1667V4.00001C11.667 3.06659 11.667 2.59988 11.4853 2.24336C11.3255 1.92976 11.0706 1.67479 10.757 1.515C10.4005 1.33334 9.93375 1.33334 9.00033 1.33334H4.33366C3.40024 1.33334 2.93353 1.33334 2.57701 1.515C2.2634 1.67479 2.00844 1.92976 1.84865 2.24336C1.66699 2.59988 1.66699 3.06659 1.66699 4.00001V10.5C1.66699 11.4205 2.41318 12.1667 3.33366 12.1667M11.667 12.1667H8.33366M8.33366 12.1667C8.33366 13.5474 7.21437 14.6667 5.83366 14.6667C4.45295 14.6667 3.33366 13.5474 3.33366 12.1667M8.33366 12.1667C8.33366 10.786 7.21437 9.66668 5.83366 9.66668C4.45295 9.66668 3.33366 10.786 3.33366 12.1667M17.0837 12.5833C17.0837 13.7339 16.1509 14.6667 15.0003 14.6667C13.8497 14.6667 12.917 13.7339 12.917 12.5833C12.917 11.4328 13.8497 10.5 15.0003 10.5C16.1509 10.5 17.0837 11.4328 17.0837 12.5833Z" stroke="#FAD12E" stroke-width="2" stroke-linecap="round" stroke-linejoin="round"/>
</svg>
