<svg width="20" height="20" viewBox="0 0 20 20" fill="none" xmlns="http://www.w3.org/2000/svg">
<path d="M10.0003 7.50002C9.25676 7.48804 8.53054 7.72505 7.93719 8.17335C7.34385 8.62165 6.91745 9.25549 6.72584 9.97405C6.53422 10.6926 6.5884 11.4546 6.87974 12.1388C7.17108 12.823 7.68286 13.3902 8.33366 13.75M10.0003 2.50002V4.16669M5.50033 15.3334L4.33366 16.5M3.33366 10.8334H1.66699M5.50033 6.33335L4.33366 5.16669M16.667 12.1126V3.33335C16.667 2.41288 15.9208 1.66669 15.0003 1.66669C14.0799 1.66669 13.3337 2.41288 13.3337 3.33335V12.1126C12.3373 12.689 11.667 13.7662 11.667 15C11.667 16.841 13.1594 18.3334 15.0003 18.3334C16.8413 18.3334 18.3337 16.841 18.3337 15C18.3337 13.7662 17.6633 12.689 16.667 12.1126Z" stroke="#FAD12E" stroke-width="2" stroke-linecap="round" stroke-linejoin="round"/>
</svg>
