<svg width="20" height="20" viewBox="0 0 20 20" fill="none" xmlns="http://www.w3.org/2000/svg">
<path d="M5.20866 18.2994L10.0003 10M14.167 2.78313C10.5727 0.70795 6.07502 1.61469 3.53866 4.73579C3.2911 5.04042 3.16732 5.19274 3.13131 5.41097C3.10266 5.58461 3.1451 5.81471 3.23381 5.9667C3.34531 6.15773 3.54292 6.27182 3.93815 6.50001L16.0625 13.5C16.4577 13.7282 16.6553 13.8423 16.8765 13.8433C17.0525 13.8442 17.273 13.7659 17.4091 13.6542C17.58 13.5139 17.6501 13.3306 17.7901 12.9639C19.2249 9.20676 17.7613 4.85831 14.167 2.78313ZM14.167 2.78313C12.5727 1.86265 9.41476 4.34757 7.11357 8.33334M14.167 2.78313C15.7613 3.7036 15.1883 7.6809 12.8871 11.6667M18.3337 18.3333H1.66699" stroke="#FAD12E" stroke-width="2" stroke-linecap="round" stroke-linejoin="round"/>
</svg>
