<svg width="20" height="16" viewBox="0 0 20 16" fill="none" xmlns="http://www.w3.org/2000/svg">
<path d="M2.50033 11.3333V3.99998C2.50033 3.06656 2.50033 2.59985 2.68198 2.24333C2.84177 1.92973 3.09674 1.67476 3.41034 1.51497C3.76686 1.33331 4.23357 1.33331 5.16699 1.33331H14.8337C15.7671 1.33331 16.2338 1.33331 16.5903 1.51497C16.9039 1.67476 17.1589 1.92973 17.3187 2.24333C17.5003 2.59985 17.5003 3.06656 17.5003 3.99998V11.3333H13.0526C12.8488 11.3333 12.7469 11.3333 12.651 11.3563C12.5659 11.3768 12.4846 11.4104 12.4101 11.4561C12.326 11.5076 12.2539 11.5797 12.1098 11.7238L12.0575 11.7761C11.9134 11.9202 11.8413 11.9923 11.7572 12.0438C11.6827 12.0895 11.6014 12.1232 11.5164 12.1436C11.4204 12.1666 11.3185 12.1666 11.1147 12.1666H8.88594C8.68212 12.1666 8.58021 12.1666 8.4843 12.1436C8.39927 12.1232 8.31798 12.0895 8.24342 12.0438C8.15932 11.9923 8.08726 11.9202 7.94313 11.7761L7.89085 11.7238C7.74672 11.5797 7.67466 11.5076 7.59056 11.4561C7.516 11.4104 7.43472 11.3768 7.34969 11.3563C7.25378 11.3333 7.15187 11.3333 6.94804 11.3333H2.50033ZM2.50033 11.3333C2.04009 11.3333 1.66699 11.7064 1.66699 12.1666V12.4444C1.66699 12.9611 1.66699 13.2194 1.72378 13.4313C1.87789 14.0065 2.32714 14.4557 2.90229 14.6099C3.11424 14.6666 3.37256 14.6666 3.88921 14.6666H16.1114C16.6281 14.6666 16.8864 14.6666 17.0984 14.6099C17.6735 14.4557 18.1228 14.0065 18.2769 13.4313C18.3337 13.2194 18.3337 12.9611 18.3337 12.4444C18.3337 12.1861 18.3337 12.0569 18.3053 11.951C18.2282 11.6634 18.0036 11.4388 17.716 11.3617C17.61 11.3333 17.4809 11.3333 17.2225 11.3333H16.667" stroke="#FAD12E" stroke-width="2" stroke-linecap="round" stroke-linejoin="round"/>
</svg>
