<svg width="14" height="20" viewBox="0 0 14 20" fill="none" xmlns="http://www.w3.org/2000/svg">
<path d="M7.00033 14.5834H7.00866M3.83366 18.3334H10.167C11.1004 18.3334 11.5671 18.3334 11.9236 18.1517C12.2372 17.9919 12.4922 17.7369 12.652 17.4233C12.8337 17.0668 12.8337 16.6001 12.8337 15.6667V4.33335C12.8337 3.39993 12.8337 2.93322 12.652 2.5767C12.4922 2.2631 12.2372 2.00813 11.9236 1.84834C11.5671 1.66669 11.1004 1.66669 10.167 1.66669H3.83366C2.90024 1.66669 2.43353 1.66669 2.07701 1.84834C1.7634 2.00813 1.50844 2.2631 1.34865 2.5767C1.16699 2.93322 1.16699 3.39993 1.16699 4.33335V15.6667C1.16699 16.6001 1.16699 17.0668 1.34865 17.4233C1.50844 17.7369 1.7634 17.9919 2.07701 18.1517C2.43353 18.3334 2.90024 18.3334 3.83366 18.3334ZM7.41699 14.5834C7.41699 14.8135 7.23044 15 7.00033 15C6.77021 15 6.58366 14.8135 6.58366 14.5834C6.58366 14.3532 6.77021 14.1667 7.00033 14.1667C7.23044 14.1667 7.41699 14.3532 7.41699 14.5834Z" stroke="#FAD12E" stroke-width="2" stroke-linecap="round" stroke-linejoin="round"/>
</svg>
