<svg width="20" height="20" viewBox="0 0 20 20" fill="none" xmlns="http://www.w3.org/2000/svg">
<path d="M15.0003 5.83335V4.33335C15.0003 3.39993 15.0003 2.93322 14.8187 2.5767C14.6589 2.2631 14.4039 2.00813 14.0903 1.84834C13.7338 1.66669 13.2671 1.66669 12.3337 1.66669H7.66699C6.73357 1.66669 6.26686 1.66669 5.91034 1.84834C5.59674 2.00813 5.34177 2.2631 5.18198 2.5767C5.00033 2.93322 5.00033 3.39993 5.00033 4.33335V5.83335M5.00033 15C4.22535 15 3.83786 15 3.51994 14.9148C2.65721 14.6837 1.98335 14.0098 1.75218 13.1471C1.66699 12.8292 1.66699 12.4417 1.66699 11.6667V9.83335C1.66699 8.43322 1.66699 7.73316 1.93948 7.19838C2.17916 6.72797 2.56161 6.34552 3.03202 6.10584C3.5668 5.83335 4.26686 5.83335 5.66699 5.83335H14.3337C15.7338 5.83335 16.4339 5.83335 16.9686 6.10584C17.439 6.34552 17.8215 6.72797 18.0612 7.19838C18.3337 7.73316 18.3337 8.43322 18.3337 9.83335V11.6667C18.3337 12.4417 18.3337 12.8292 18.2485 13.1471C18.0173 14.0098 17.3434 14.6837 16.4807 14.9148C16.1628 15 15.7753 15 15.0003 15M12.5003 8.75002H15.0003M7.66699 18.3334H12.3337C13.2671 18.3334 13.7338 18.3334 14.0903 18.1517C14.4039 17.9919 14.6589 17.7369 14.8187 17.4233C15.0003 17.0668 15.0003 16.6001 15.0003 15.6667V14.3334C15.0003 13.3999 15.0003 12.9332 14.8187 12.5767C14.6589 12.2631 14.4039 12.0081 14.0903 11.8483C13.7338 11.6667 13.2671 11.6667 12.3337 11.6667H7.66699C6.73357 11.6667 6.26686 11.6667 5.91034 11.8483C5.59674 12.0081 5.34177 12.2631 5.18198 12.5767C5.00033 12.9332 5.00033 13.3999 5.00033 14.3334V15.6667C5.00033 16.6001 5.00033 17.0668 5.18198 17.4233C5.34177 17.7369 5.59674 17.9919 5.91034 18.1517C6.26686 18.3334 6.73357 18.3334 7.66699 18.3334Z" stroke="#FAD12E" stroke-width="2" stroke-linecap="round" stroke-linejoin="round"/>
</svg>
