<svg width="20" height="14" viewBox="0 0 20 14" fill="none" xmlns="http://www.w3.org/2000/svg">
<path d="M5.00028 6.16669H8.33361M6.66694 4.50002V7.83335M12.5003 7.00002H12.5086M15.0003 5.33335H15.0086M8.70774 1.16669H11.2928C13.4802 1.16669 14.5739 1.16669 15.4324 1.58121C16.1882 1.94619 16.8162 2.53093 17.2341 3.25885C17.7088 4.0856 17.7867 5.17653 17.9425 7.35837L18.1476 10.2288C18.2481 11.6362 17.1334 12.8334 15.7224 12.8334C15.0008 12.8334 14.3165 12.5128 13.8546 11.9585L13.5419 11.5834C13.256 11.2402 13.113 11.0686 12.9502 10.93C12.6089 10.6393 12.1957 10.4458 11.7539 10.3697C11.5432 10.3334 11.3198 10.3334 10.8731 10.3334H9.12741C8.68072 10.3334 8.45737 10.3334 8.24664 10.3697C7.80486 10.4458 7.39167 10.6393 7.05036 10.93C6.88756 11.0686 6.74457 11.2402 6.45861 11.5834L6.14597 11.9585C5.68403 12.5128 4.99973 12.8334 4.27816 12.8334C2.86714 12.8334 1.75245 11.6362 1.85298 10.2288L2.05801 7.35837C2.21386 5.17653 2.29178 4.0856 2.76642 3.25885C3.18431 2.53093 3.81231 1.94619 4.56816 1.58121C5.42663 1.16669 6.52033 1.16669 8.70774 1.16669Z" stroke="#FAD12E" stroke-width="2" stroke-linecap="round" stroke-linejoin="round"/>
</svg>
