<svg width="20" height="19" viewBox="0 0 20 19" fill="none" xmlns="http://www.w3.org/2000/svg">
<path d="M5.00033 5.00002L8.75033 8.75002M5.00033 5.00002H2.50033L1.66699 2.50002L2.50033 1.66669L5.00033 2.50002V5.00002ZM16.0495 2.2842L13.8598 4.47388C13.5298 4.80389 13.3648 4.9689 13.303 5.15917C13.2486 5.32654 13.2486 5.50683 13.303 5.6742C13.3648 5.86447 13.5298 6.02948 13.8598 6.35949L14.0575 6.55721C14.3875 6.88723 14.5525 7.05223 14.7428 7.11406C14.9102 7.16844 15.0905 7.16844 15.2578 7.11406C15.4481 7.05223 15.6131 6.88723 15.9431 6.55721L17.9914 4.50895C18.212 5.04576 18.3337 5.63368 18.3337 6.25002C18.3337 8.78133 16.2816 10.8334 13.7503 10.8334C13.4452 10.8334 13.1469 10.8035 12.8585 10.7466C12.4533 10.6667 12.2508 10.6268 12.128 10.639C11.9974 10.652 11.9331 10.6716 11.8174 10.7335C11.7086 10.7917 11.5995 10.9009 11.3812 11.1192L5.41699 17.0833C4.72664 17.7737 3.60735 17.7737 2.91699 17.0833C2.22664 16.393 2.22664 15.2737 2.91699 14.5833L8.88118 8.61916C9.09947 8.40088 9.20861 8.29173 9.26684 8.18293C9.32874 8.06725 9.34832 8.00291 9.36132 7.87236C9.37356 7.74957 9.33361 7.54701 9.25371 7.14189C9.19682 6.8534 9.16699 6.55519 9.16699 6.25002C9.16699 3.71872 11.219 1.66669 13.7503 1.66669C14.5882 1.66669 15.3736 1.89154 16.0495 2.2842ZM10.0004 12.5L14.5837 17.0833C15.274 17.7736 16.3933 17.7736 17.0836 17.0833C17.774 16.3929 17.774 15.2736 17.0836 14.5833L13.3131 10.8128C13.0462 10.7875 12.7859 10.7394 12.5343 10.6703C12.2101 10.5813 11.8544 10.6459 11.6167 10.8836L10.0004 12.5Z" stroke="#FAD12E" stroke-width="2" stroke-linecap="round" stroke-linejoin="round"/>
</svg>
