<svg width="21" height="20" viewBox="0 0 21 20" fill="none" xmlns="http://www.w3.org/2000/svg">
<path d="M13.833 6.66667C13.833 7.55072 13.4818 8.39857 12.8567 9.02369C12.2316 9.64881 11.3837 10 10.4997 10C9.6156 10 8.76776 9.64881 8.14263 9.02369C7.51751 8.39857 7.16632 7.55072 7.16632 6.66667M3.52734 6.16782L2.94401 13.1678C2.81869 14.6716 2.75604 15.4235 3.01023 16.0035C3.23356 16.5131 3.62051 16.9336 4.10981 17.1985C4.66672 17.5 5.42121 17.5 6.93019 17.5H14.0691C15.5781 17.5 16.3326 17.5 16.8895 17.1985C17.3788 16.9336 17.7658 16.5131 17.9891 16.0035C18.2433 15.4235 18.1806 14.6716 18.0553 13.1678L17.472 6.16782C17.3642 4.87396 17.3102 4.22703 17.0237 3.73738C16.7714 3.3062 16.3957 2.9605 15.9451 2.74487C15.4333 2.5 14.7841 2.5 13.4858 2.5L7.51352 2.5C6.21518 2.5 5.566 2.5 5.05425 2.74487C4.60361 2.9605 4.22791 3.3062 3.9756 3.73738C3.68907 4.22703 3.63516 4.87396 3.52734 6.16782Z" stroke="white" stroke-width="2" stroke-linecap="round" stroke-linejoin="round"/>
</svg>
